<svg width="22" height="22" viewBox="0 0 22 22" fill="none" xmlns="http://www.w3.org/2000/svg">
<path d="M4.8894 2.44434H14.6672C14.9913 2.44434 15.3022 2.57311 15.5314 2.80232C15.7606 3.03153 15.8894 3.3424 15.8894 3.66656H4.8894V18.3332H14.6672V12.3443H15.8894V18.3332C15.8894 18.6574 15.7606 18.9683 15.5314 19.1975C15.3022 19.4267 14.9913 19.5554 14.6672 19.5554H4.8894C4.56525 19.5554 4.25437 19.4267 4.02516 19.1975C3.79595 18.9683 3.66718 18.6574 3.66718 18.3332V3.66656C3.66718 3.3424 3.79595 3.03153 4.02516 2.80232C4.25437 2.57311 4.56525 2.44434 4.8894 2.44434Z" fill="white"/>
<path d="M12.7605 11.2811C12.8245 11.3359 12.8764 11.4033 12.9131 11.4792C12.9498 11.555 12.9704 11.6376 12.9737 11.7217C12.9769 11.8059 12.9627 11.8898 12.932 11.9682C12.9013 12.0466 12.8547 12.1179 12.7951 12.1774C12.7356 12.237 12.6643 12.2836 12.5859 12.3143C12.5075 12.345 12.4236 12.3592 12.3394 12.356C12.2553 12.3527 12.1727 12.3321 12.0969 12.2954C12.021 12.2587 11.9536 12.2068 11.8988 12.1428L8.36051 8.60447L11.8927 5.06614C12.0096 4.96602 12.16 4.9137 12.3138 4.91965C12.4676 4.92559 12.6135 4.98934 12.7224 5.09818C12.8312 5.20702 12.8949 5.35291 12.9009 5.50671C12.9068 5.66052 12.8545 5.8109 12.7544 5.9278L10.695 7.94447H19.5561C19.7181 7.94447 19.8736 8.00885 19.9882 8.12346C20.1028 8.23806 20.1672 8.3935 20.1672 8.55558C20.1672 8.71766 20.1028 8.87309 19.9882 8.9877C19.8736 9.10231 19.7181 9.16669 19.5561 9.16669H10.695L12.7605 11.2811Z" fill="white"/>
</svg>
