<svg width="22" height="18" viewBox="0 0 22 18" fill="none" xmlns="http://www.w3.org/2000/svg">
<path fill-rule="evenodd" clip-rule="evenodd" d="M5.2716 2.61872C0.823757 4.87227 0.101754 5.26447 0.0338274 5.46398C-0.0242975 5.63485 -0.0091642 5.75023 0.0920383 5.90561C0.282922 6.19887 10.1198 12.2604 10.6041 12.3831C10.8887 12.4552 11.0852 12.4531 11.3946 12.3742C11.97 12.2277 21.7246 6.18796 21.9024 5.86821C22.1825 5.36453 22.2301 5.3943 16.6672 2.59396C11.5208 0.00326348 11.5044 -0.00418067 10.9683 0.000320379C10.4377 0.00482142 10.3628 0.0391855 5.2716 2.61872ZM20.7855 8.40403C20.2563 8.72023 20.2757 8.58329 20.2757 12.0036V15.1494L19.9859 15.4411C19.44 15.9906 19.5288 16.7588 20.1897 17.2058C20.7581 17.5902 21.54 17.3039 21.827 16.6063C21.9803 16.2338 21.8575 15.7664 21.5157 15.4224L21.2215 15.1263V11.721C21.2215 9.848 21.1898 8.29592 21.1509 8.27177C21.1122 8.24762 20.9477 8.30709 20.7855 8.40403ZM15.6795 11.2509C13.8374 12.3916 12.1543 13.3934 11.9393 13.4769C11.3834 13.6929 10.4635 13.6716 9.92889 13.4302C9.70026 13.327 8.11636 12.3787 6.40924 11.323C4.70204 10.2674 3.1969 9.36241 3.0644 9.31212C2.61909 9.1429 2.60611 9.21344 2.60611 11.7938C2.60611 14.0843 2.61153 14.1592 2.80645 14.5577C3.78804 16.564 7.20158 18 10.9895 18C14.7774 18 18.191 16.564 19.1725 14.5577C19.3627 14.1688 19.3743 14.0413 19.4024 12.037C19.4354 9.66969 19.3955 9.16956 19.1742 9.17388C19.0943 9.17544 17.5217 10.1101 15.6795 11.2509Z" fill="white"/>
</svg>
