<svg width="22" height="22" viewBox="0 0 22 22" fill="none" xmlns="http://www.w3.org/2000/svg">
<path fill-rule="evenodd" clip-rule="evenodd" d="M12.1141 0.131055C7.18359 1.02413 4.06511 6.12717 5.55741 10.8603C7.12984 15.8477 12.6515 18.2457 17.3059 15.9626C21.4622 13.9239 23.1921 8.81982 21.128 4.68582C19.4602 1.34563 15.7524 -0.527934 12.1141 0.131055ZM15.2617 2.83936C16.2003 3.12644 16.9068 3.56365 17.6769 4.33413C18.4432 5.10083 18.8847 5.81238 19.1648 6.73256C20.1265 9.89123 18.2069 13.2444 14.9607 14.0764C14.2308 14.2634 12.9378 14.2633 12.2092 14.076C10.1351 13.5428 8.47287 11.8797 7.93993 9.8046C7.75273 9.07558 7.75256 7.78195 7.9395 7.05164C8.49652 4.87612 10.2807 3.15836 12.458 2.70163C13.224 2.54092 14.4889 2.60304 15.2617 2.83936ZM12.6821 3.96919C12.053 4.08834 11.096 4.57803 10.5722 5.04878C8.30657 7.08477 8.67563 10.7955 11.2965 12.3322C12.7346 13.1754 14.6437 13.1351 16.0392 12.2319C16.7227 11.7895 17.3089 11.1193 17.6708 10.3665C19.2792 7.02076 16.3568 3.27321 12.6821 3.96919ZM2.82131 16.493C0.0552899 19.2704 0 19.3407 0 20.0852C0 20.8791 0.644298 21.7378 1.39118 21.9394C1.82146 22.0555 2.46472 21.9996 2.81047 21.816C2.94307 21.7456 4.2124 20.5222 5.63118 19.0974L8.21078 16.5067L7.9542 16.3172C7.2633 15.8071 6.58615 15.1648 6.1011 14.5595C5.80659 14.1918 5.54098 13.8811 5.51097 13.8691C5.48096 13.857 4.27062 15.0377 2.82131 16.493Z" fill="white"/>
</svg>
