<svg width="24" height="24" viewBox="0 0 24 24" fill="none" xmlns="http://www.w3.org/2000/svg">
<path fill-rule="evenodd" clip-rule="evenodd" d="M10.0312 0.187485C9.75103 0.467682 9.75094 0.839185 10.0311 1.23056L10.2073 1.47682L9.37406 1.58369C8.33372 1.71709 7.47675 1.97769 6.53212 2.44781C5.45381 2.98449 5.01581 3.30818 4.07812 4.26154C2.53659 5.82892 1.70231 7.66431 1.53806 9.84974C1.48387 10.5707 1.49662 10.6624 1.68366 10.8976C2.121 11.4477 2.90625 11.1168 2.90625 10.3823C2.90625 9.78271 3.09703 8.74132 3.33497 8.04172C4.23769 5.38777 6.56747 3.44167 9.36066 3.00839C10.2456 2.87106 10.2771 2.87368 10.0992 3.07026C9.52434 3.70537 9.93188 4.56883 10.7137 4.37254C10.8314 4.3431 11.3166 3.92238 11.7919 3.43764C12.5806 2.63342 12.6562 2.52459 12.6562 2.19414C12.6562 1.85995 12.5847 1.76124 11.7292 0.915961C10.956 0.151957 10.7539 0 10.5105 0C10.3437 0 10.1384 0.0803375 10.0312 0.187485ZM18.8749 0.0898992C17.7352 0.361378 16.9688 1.37971 16.9688 2.62264C16.9688 3.83314 17.6473 4.75051 18.789 5.08339L19.2351 5.2135L18.6736 5.31784C17.1274 5.60544 15.8089 6.77685 15.2866 8.32735C15.1429 8.75398 15.0938 9.13898 15.0938 9.83999C15.0938 11.2817 14.6679 11.1554 19.5306 11.1554H23.5923L23.7962 10.9385C23.9723 10.7509 24 10.6136 24 9.92698C24 8.50743 23.6018 7.48751 22.6875 6.56462C22.0712 5.94254 21.439 5.58819 20.5133 5.34568C20.1365 5.24697 19.9147 5.16382 20.0207 5.16101C20.3687 5.15173 21.1809 4.67776 21.5122 4.2907C21.9583 3.76968 22.1604 3.12145 22.1024 2.39822C22.0444 1.67518 21.7845 1.15997 21.2331 0.674666C20.5637 0.0854933 19.7454 -0.11746 18.8749 0.0898992ZM3.47381 13.0047C2.84353 13.2272 2.20331 13.9177 2.00962 14.5837C1.61906 15.9271 2.25206 17.3443 3.44147 17.7894C3.58538 17.8433 3.7875 17.9172 3.89062 17.9538C4.03031 18.0034 3.93225 18.0512 3.50644 18.1413C1.89759 18.4817 0.573281 19.7746 0.143531 21.4242C0.0645936 21.7272 0 22.3268 0 22.7566C0 23.4612 0.0225939 23.5605 0.230156 23.768L0.460218 23.9981H4.43625C9.27309 23.9981 8.90625 24.1056 8.90625 22.6888C8.90625 21.2183 8.49806 20.1933 7.54247 19.2647C7.04016 18.7766 5.98387 18.2233 5.382 18.133C4.91428 18.0629 4.93069 17.9845 5.44734 17.8196C5.94609 17.6605 6.51787 17.1242 6.79706 16.5537C7.42181 15.2767 6.88716 13.7236 5.60241 13.0834C5.03128 12.7989 4.14928 12.7663 3.47381 13.0047ZM21.2849 13.048C21.1608 13.1811 21.0938 13.3804 21.0938 13.6158C21.0938 14.2154 20.903 15.2568 20.665 15.9564C19.7647 18.6035 17.4253 20.5576 14.6393 20.9897C13.7544 21.1271 13.7229 21.1245 13.9008 20.9279C14.4757 20.2928 14.0681 19.4293 13.2863 19.6256C13.1686 19.655 12.6834 20.0758 12.2081 20.5605C11.4194 21.3647 11.3438 21.4736 11.3438 21.804C11.3438 22.1382 11.4153 22.2369 12.2708 23.0822C13.044 23.8462 13.2461 23.9981 13.4895 23.9981C14.1228 23.9981 14.379 23.3405 13.9689 22.7676L13.7927 22.5213L14.6259 22.4144C16.7002 22.1485 18.6197 21.1665 20.0464 19.6413C20.7456 18.894 21.067 18.4298 21.5536 17.4649C22.0232 16.5339 22.3828 15.2248 22.4616 14.161C22.5158 13.4275 22.5033 13.3361 22.3162 13.1005C22.0542 12.7708 21.5663 12.7458 21.2849 13.048Z" fill="white"/>
</svg>
