<svg width="15" height="15" viewBox="0 0 15 15" fill="none" xmlns="http://www.w3.org/2000/svg">
<path d="M12.5757 11.1855C12.2994 10.531 11.8984 9.93648 11.395 9.43506C10.8932 8.93219 10.2988 8.53126 9.64454 8.25439C9.63868 8.25146 9.63282 8.25 9.62696 8.24707C10.5396 7.58789 11.1328 6.51416 11.1328 5.30273C11.1328 3.2959 9.50684 1.66992 7.50001 1.66992C5.49317 1.66992 3.86719 3.2959 3.86719 5.30273C3.86719 6.51416 4.46046 7.58789 5.37305 8.24853C5.36719 8.25146 5.36133 8.25293 5.35547 8.25586C4.69922 8.53271 4.11036 8.92969 3.60499 9.43652C3.10212 9.93833 2.70118 10.5328 2.42432 11.187C2.15233 11.8275 2.00564 12.5142 1.99219 13.21C1.9918 13.2256 1.99454 13.2411 2.00026 13.2557C2.00597 13.2703 2.01454 13.2835 2.02546 13.2947C2.03638 13.3059 2.04944 13.3148 2.06385 13.3209C2.07826 13.327 2.09374 13.3301 2.10938 13.3301H2.98829C3.05274 13.3301 3.10401 13.2788 3.10547 13.2158C3.13477 12.085 3.58887 11.0259 4.39161 10.2231C5.22217 9.39258 6.3252 8.93555 7.50001 8.93555C8.67481 8.93555 9.77784 9.39258 10.6084 10.2231C11.4111 11.0259 11.8652 12.085 11.8945 13.2158C11.896 13.2803 11.9473 13.3301 12.0117 13.3301H12.8906C12.9063 13.3301 12.9218 13.327 12.9362 13.3209C12.9506 13.3148 12.9636 13.3059 12.9745 13.2947C12.9855 13.2835 12.994 13.2703 12.9998 13.2557C13.0055 13.2411 13.0082 13.2256 13.0078 13.21C12.9932 12.5098 12.8482 11.8286 12.5757 11.1855ZM7.50001 7.82227C6.82764 7.82227 6.19483 7.56006 5.71876 7.08398C5.24268 6.60791 4.98047 5.9751 4.98047 5.30273C4.98047 4.63037 5.24268 3.99756 5.71876 3.52148C6.19483 3.04541 6.82764 2.7832 7.50001 2.7832C8.17237 2.7832 8.80518 3.04541 9.28126 3.52148C9.75733 3.99756 10.0195 4.63037 10.0195 5.30273C10.0195 5.9751 9.75733 6.60791 9.28126 7.08398C8.80518 7.56006 8.17237 7.82227 7.50001 7.82227Z" fill="white"/>
</svg>
