<svg width="22" height="22" viewBox="0 0 22 22" fill="none" xmlns="http://www.w3.org/2000/svg">
<path fill-rule="evenodd" clip-rule="evenodd" d="M12.2481 0.0558365C11.2314 0.215586 10.3409 0.497041 9.41305 0.951586C7.76042 1.76143 6.50008 2.96627 5.80762 4.39833C5.49955 5.03543 5.26713 5.77944 5.35015 5.86267C5.37746 5.89004 5.69239 5.83555 6.05008 5.74165C7.19134 5.44195 8.01087 5.36388 9.52681 5.41036C10.7509 5.4478 11.1017 5.49161 11.9459 5.7123C16.0905 6.79594 18.9988 9.87783 19.3766 13.5865L19.4357 14.1675H20.5029C21.5214 14.1675 21.5797 14.1578 21.7807 13.9562C22.1674 13.5687 22.1024 13.4043 21.0988 12.2309C20.8154 11.8995 20.5296 11.5631 20.4636 11.4833C20.3578 11.3553 20.389 11.2742 20.728 10.7948C21.5175 9.6784 21.8945 8.63297 21.9638 7.3678C22.1476 4.01075 19.5057 1.01941 15.6069 0.169968C14.8681 0.00901383 12.9589 -0.0557985 12.2481 0.0558365ZM8.59738 6.65702C7.13621 6.72141 5.64946 7.11346 4.3729 7.77079C3.42818 8.25736 2.70953 8.80357 1.93121 9.62658C-0.434146 12.1278 -0.613164 15.7208 1.48714 18.5405C1.87566 19.0621 1.91893 18.9272 1.04033 19.9343C-0.117581 21.2614 -0.174763 21.3909 0.222167 21.7887L0.432867 22H5.36423C9.40609 22 10.4191 21.9765 10.98 21.8699C13.9198 21.3108 16.5133 19.3337 17.5831 16.8361C18.4961 14.7044 18.1939 12.2019 16.7922 10.2877C16.4005 9.75277 15.2709 8.68505 14.6934 8.30383C12.9371 7.14436 10.7772 6.56088 8.59738 6.65702ZM5.76623 13.0497C6.14719 13.2445 6.45088 13.7404 6.45088 14.1675C6.45088 14.8224 5.81629 15.4585 5.16298 15.4585C4.73694 15.4585 4.2423 15.1541 4.04792 14.7722C3.82906 14.3421 3.82897 13.9929 4.04774 13.5631C4.36508 12.9396 5.1137 12.716 5.76623 13.0497ZM9.62598 13.0272C10.0549 13.2431 10.3146 13.6732 10.3146 14.1675C10.3146 14.6617 10.0549 15.0918 9.62598 15.3077C8.78498 15.7314 7.82464 15.1235 7.82464 14.1675C7.82464 13.4732 8.40007 12.8767 9.06961 12.8767C9.21128 12.8767 9.46164 12.9444 9.62598 13.0272ZM13.5795 13.0497C13.9604 13.2445 14.2641 13.7404 14.2641 14.1675C14.2641 14.8224 13.6295 15.4585 12.9762 15.4585C12.5502 15.4585 12.0556 15.1541 11.8612 14.7722C11.6423 14.3421 11.6422 13.9929 11.861 13.5631C12.1783 12.9396 12.927 12.716 13.5795 13.0497Z" fill="white"/>
</svg>
